<?xml version="1.0" encoding="UTF-8"?><svg id="Layer_1" xmlns="http://www.w3.org/2000/svg" viewBox="0 0 16 16"><defs><style>.cls-1{fill:#007ddb;}</style></defs><path class="cls-1" d="M7.73,15.45c-3.53,0-6.53-2.71-6.83-6.18C.59,5.68,3.01,2.47,6.51,1.85c1.28-.23,2.53-.11,3.74,.38,.43,.18,.6,.47,.48,.82-.12,.34-.49,.47-.93,.3-2.88-1.05-5.87,.13-7.17,2.82-1.66,3.44,.6,7.55,4.4,8.01,3.46,.42,6.45-2.32,6.33-5.8-.01-.39-.07-.78-.17-1.16-.1-.42,.06-.74,.41-.82,.38-.09,.66,.1,.77,.54,1.12,4.25-2.19,8.5-6.64,8.5h0Z"/><path class="cls-1" d="M15.09,2.55c.01,.15-.07,.31-.18,.46-2.04,2.91-4.08,5.83-6.12,8.74-.41,.58-1.01,.58-1.42,0-.85-1.2-1.69-2.4-2.52-3.6-.4-.58-.29-1.28,.25-1.65,.53-.37,1.22-.24,1.64,.34,.38,.53,.75,1.08,1.13,1.62,.27,.38,.43,.39,.72,.03,1.65-2.04,3.3-4.07,4.96-6.11,.12-.14,.23-.29,.36-.42,.23-.2,.5-.23,.78-.1,.26,.12,.4,.34,.41,.68h0Z"/></svg>