<?xml version="1.0" encoding="UTF-8"?><svg id="Layer_1" xmlns="http://www.w3.org/2000/svg" viewBox="0 0 16 16"><defs><style>.cls-1{fill:#ba2329;}</style></defs><path class="cls-1" d="M11.14,14.99c-.83-.05-1.61-.3-2.35-.67-1.61-.8-2.93-1.97-4.13-3.27-1.18-1.27-2.17-2.66-2.79-4.29-.19-.48-.33-.98-.41-1.49-.03-.17,0-.32,.1-.47,.63-.86,1.29-1.69,2.05-2.43,.27-.26,.3-.26,.53,.04,.65,.87,1.19,1.81,1.67,2.79,.08,.17,.05,.29-.09,.41-.33,.29-.65,.59-.97,.87-.18,.16-.22,.34-.15,.57,.6,1.81,1.64,3.28,3.26,4.32,.48,.31,1.01,.51,1.59,.56,.24,.02,.43-.04,.6-.21,.28-.28,.57-.54,.86-.81,.11-.1,.23-.14,.38-.06,.97,.53,1.9,1.1,2.77,1.79,.17,.14,.19,.24,.02,.4-.76,.69-1.58,1.28-2.45,1.82-.14,.09-.31,.12-.47,.11Z"/><path class="cls-1" d="M14.39,7.74c.05,.15-.06,.2-.21,.22-.22,.03-.44,.05-.66,.09-.17,.03-.22,0-.23-.18-.08-1.63-.75-2.96-2.06-3.95-.83-.63-1.77-.96-2.81-.99-.24,0-.29-.08-.25-.3,.04-.21,.07-.42,.09-.63,.01-.16,.08-.18,.22-.18,2.7,.11,5.07,2.06,5.71,4.68,.1,.4,.15,.81,.19,1.25Z"/><path class="cls-1" d="M11.83,7.67c0,.37,0,.37-.37,.42-.18,.02-.36,.04-.54,.08-.16,.04-.18-.02-.18-.16,0-.36,0-.72-.12-1.07-.34-.92-1.27-1.64-2.27-1.58-.44,.02-.44,0-.38-.44,.01-.09,.02-.18,.04-.27q.06-.4,.46-.39c1.86,.06,3.34,1.56,3.35,3.42Z"/></svg>