<?xml version="1.0" encoding="UTF-8"?><svg id="Layer_1" xmlns="http://www.w3.org/2000/svg" viewBox="0 0 16 16"><defs><style>.cls-1{fill:#ba2329;}</style></defs><path class="cls-1" d="M8.13,1.74c.23,0,.45,.06,.65,.16,1.62,.81,3.23,1.62,4.85,2.42,.12,.06,.21,.14,.21,.28,0,.15-.09,.23-.22,.29-1.62,.81-3.25,1.62-4.87,2.43-.42,.21-.84,.21-1.27,0-1.63-.82-3.26-1.63-4.88-2.44-.12-.06-.21-.14-.2-.28,0-.14,.09-.22,.21-.28,1.61-.8,3.22-1.61,4.84-2.41,.21-.11,.44-.18,.68-.17Z"/><path class="cls-1" d="M7.69,11.78c0,.9,0,1.8,0,2.69,0,.35-.18,.46-.49,.32-1.47-.68-2.93-1.35-4.4-2.03-.49-.23-.75-.62-.75-1.16,0-1.72,0-3.45,0-5.17,0-.31,.19-.43,.47-.3,1.54,.71,3.09,1.42,4.63,2.14,.37,.17,.54,.45,.54,.86,0,.89,0,1.77,0,2.66Z"/><path class="cls-1" d="M8.56,11.76c0-.88,0-1.75,0-2.63,0-.43,.19-.72,.58-.9,1.53-.7,3.05-1.4,4.57-2.11,.3-.14,.49-.02,.49,.3,0,1.71,0,3.42,0,5.13,0,.56-.25,.96-.76,1.19-1.47,.68-2.94,1.35-4.4,2.04-.29,.13-.49-.05-.49-.32,.02-.9,0-1.81,0-2.71Z"/></svg>