<?xml version="1.0" encoding="UTF-8"?><svg id="Layer_1" xmlns="http://www.w3.org/2000/svg" viewBox="0 0 16 16"><defs><style>.cls-1{fill:#ba2329;}</style></defs><path class="cls-1" d="M4.88,3.01c-.61,.24-1.02,.67-1.27,1.26-.11,.26-.18,.54-.22,.82,0,.05-.01,.09-.03,.14-.03,.12-.15,.2-.27,.19-.13-.02-.23-.13-.21-.26,.12-1.02,.52-1.87,1.44-2.42,.04-.03,.09-.05,.14-.08-.34-.17-.77-.11-1.06,.15-.25,.23-.39,.53-.5,.84-.01,.03-.02,.07-.03,.1-.05,.13-.17,.2-.29,.17-.14-.03-.22-.15-.18-.29,.21-.73,.55-1.34,1.36-1.54,.01,0,.02-.02,.05-.03-.41-.08-.8-.05-1.19,.07-.05,.02-.1,.03-.15,.05-.15,.04-.27-.01-.32-.14-.05-.13,0-.27,.15-.33,.26-.11,.54-.17,.83-.19,.42-.03,.82,.04,1.21,.2,.02,0,.04,.03,.07,.01,.02-.05-.03-.07-.06-.1-.26-.25-.57-.39-.92-.42-.05,0-.1,0-.15-.03-.12-.05-.17-.15-.14-.28,.03-.14,.12-.2,.26-.19,.62,.04,1.12,.31,1.51,.8,.03,.04,.06,.07,.08,.11,.06,0,.06-.06,.08-.09,.21-.37,.51-.63,.9-.79,.16-.06,.3-.02,.36,.11,.06,.14,0,.28-.16,.35-.32,.13-.55,.34-.7,.64,.03,.04,.06,.02,.08,0,.49-.3,1-.3,1.52-.12,.32,.11,.61,.28,.88,.48,.15,.11,.18,.26,.09,.37-.09,.12-.24,.13-.39,.02-.36-.26-.74-.47-1.2-.5-.27-.02-.52,.06-.75,.25,.12,.02,.22,.03,.32,.05,.75,.16,1.24,.66,1.62,1.29,.07,.12,.12,.24,.17,.36,.06,.15,0,.29-.12,.34-.13,.06-.27,0-.34-.15-.18-.41-.42-.78-.79-1.06-.32-.24-.67-.35-1.07-.32-.12,.01-.13,.05-.12,.15,.06,.36,.19,.68,.35,1,.31,.64,.64,1.27,.91,1.93,.26,.67,.38,1.37,.45,2.08,.06,.66,.08,1.32,.03,1.98,0,.09,.01,.12,.12,.14,.19,.02,.26-.06,.31-.22,.3-.85,.67-1.66,1.21-2.39,.29-.39,.63-.74,.97-1.08,.34-.35,.7-.68,1.02-1.04,.15-.17,.27-.35,.38-.55,.05-.09,.03-.12-.06-.16-.45-.2-.89-.18-1.33,.03-.34,.16-.62,.39-.87,.66-.13,.14-.27,.15-.38,.05-.1-.09-.11-.24-.01-.35,.59-.66,1.29-1.09,2.22-1,.07,0,.14,.02,.21,.04,.03,0,.05,.04,.08,.01,.03-.04,0-.07-.03-.09-.19-.25-.44-.38-.75-.42-.37-.05-.72,0-1.07,.12-.06,.02-.13,.05-.2,.04-.12-.02-.2-.1-.21-.21-.02-.12,.04-.22,.15-.26,.77-.29,1.91-.36,2.5,.47,0,0,.02,0,.03,.01-.03-.33-.16-.61-.4-.84-.03-.03-.06-.05-.09-.08-.11-.11-.12-.25-.02-.36,.09-.1,.23-.11,.35-.01,.34,.28,.55,.63,.64,1.07,0,.03,.01,.06,.02,.09,0,0,0,0,.02,.02,.26-.18,.53-.32,.84-.38,.31-.06,.62-.06,.92,.02,.18,.04,.26,.17,.23,.31-.04,.15-.16,.22-.34,.18-.42-.11-.81-.05-1.18,.18,.17,0,.35,0,.52,0,.56,.05,1.05,.25,1.48,.61,.14,.12,.17,.26,.08,.38-.09,.12-.24,.12-.38,.01-.3-.24-.64-.4-1.01-.48-.05-.01-.11-.03-.17,0,.57,.33,.77,.86,.83,1.47,.01,.14,0,.28,0,.42,0,.16-.11,.25-.26,.25-.14,0-.24-.11-.24-.27,.01-.31,0-.62-.13-.91-.17-.42-.55-.66-1.02-.62,.06,.07,.12,.14,.17,.2,.52,.65,.67,1.39,.59,2.2-.01,.14-.04,.28-.07,.41-.04,.18-.15,.26-.3,.23-.14-.03-.21-.15-.18-.32,.08-.45,.11-.89,0-1.34-.11-.47-.41-.95-.74-1.17-.25,.53-.67,.92-1.08,1.33-.47,.48-.97,.93-1.37,1.48-.5,.68-.83,1.44-1.13,2.23,0,.02,0,.04,0,.07,.35,0,.69,0,1.03,0,.12,0,.06-.09,.06-.13-.06-.7,.37-1.35,1.05-1.55,.99-.3,1.97,.47,1.91,1.51,0,.15,.02,.19,.17,.18,.46-.01,.92-.01,1.38,0,.14,0,.17-.05,.18-.17,.04-.7-.02-1.39-.23-2.07-.02-.05-.03-.1-.04-.15-.02-.12,.07-.24,.19-.27,.14-.03,.25,.03,.3,.18,.12,.35,.2,.72,.24,1.09,.22,2.03-.39,3.79-1.88,5.18-1.48,1.38-3.27,1.93-5.26,1.52-2.59-.53-4.23-2.14-4.83-4.71-.39-1.69-.02-3.28,.97-4.71,.1-.14,.24-.17,.36-.09,.13,.08,.15,.23,.04,.38-.45,.66-.77,1.38-.92,2.16-.1,.51-.11,1.02-.08,1.53,0,.1,.05,.13,.14,.13,1.24,0,2.47,0,3.71,0,.08,0,.12,0,.12-.1,.04-1.06,0-2.11-.22-3.15-.13-.62-.4-1.18-.67-1.74-.25-.54-.56-1.06-.74-1.63-.05-.17-.08-.34-.12-.52Zm-1.92,8.38c.05,.12,.1,.22,.13,.33,.04,.13,.12,.16,.25,.16,3.26,0,6.51,0,9.77,0,.04,0,.07,0,.11,0,.04,0,.07,0,.1-.06,.06-.14,.13-.28,.17-.44H2.96Zm.62,1.24c.1,.14,.2,.25,.28,.37,.06,.1,.14,.13,.26,.12,1.37,0,2.74,0,4.11,0s2.75,0,4.13,0c.05,0,.12,.02,.16-.03,.12-.14,.24-.29,.34-.46H3.58Zm1.15,1.24c.21,.17,.41,.3,.61,.43,.07,.05,.15,.06,.23,.06,1.77,0,3.53,0,5.3,0,.05,0,.1,0,.14-.01,.24-.14,.47-.28,.69-.48H4.74Z"/><path class="cls-1" d="M4.37,5.52c-.11,0-.18-.04-.23-.12-.05-.09-.05-.18,.01-.26,.1-.12,.21-.23,.34-.31,.1-.06,.21-.05,.3,.04,.08,.08,.11,.19,.04,.28-.11,.15-.25,.26-.4,.36-.02,.01-.05,0-.06,.01Z"/></svg>