<?xml version="1.0" encoding="UTF-8"?><svg id="Layer_1" xmlns="http://www.w3.org/2000/svg" viewBox="0 0 16 16"><defs><style>.cls-1{fill:#ba2329;}</style></defs><path class="cls-1" d="M6.65,11.75c-.43-.69-.86-1.36-1.28-2.04-.4-.64-.8-1.28-1.17-1.94-.65-1.17-.7-2.38-.19-3.61,.68-1.62,2.36-2.61,4.09-2.46,1.78,.16,3.25,1.41,3.64,3.14,.24,1.02,.12,2.01-.41,2.93-.75,1.3-1.55,2.55-2.35,3.82-.03,.05-.06,.1-.09,.15,.4,.05,.78,.08,1.16,.14,.77,.12,1.53,.28,2.23,.63,.16,.08,.32,.18,.45,.3,.36,.33,.36,.71-.01,1.03-.33,.28-.72,.44-1.12,.57-.89,.29-1.81,.41-2.73,.47-.98,.06-1.96,.05-2.94-.06-.89-.1-1.76-.26-2.58-.63-.25-.11-.49-.25-.68-.47-.23-.27-.22-.55,.01-.82,.2-.23,.47-.37,.75-.49,.72-.31,1.48-.46,2.25-.56,.31-.04,.63-.07,.97-.1Zm2.92-5.97c0-.98-.81-1.79-1.79-1.79-.98,0-1.8,.81-1.8,1.78,0,.99,.81,1.81,1.79,1.81,.99,0,1.8-.81,1.8-1.8Zm-1.8,7.71c-.26-.4-.51-.78-.75-1.17-.04-.06-.08-.1-.16-.09-.53,.05-1.06,.12-1.57,.26-.32,.09-.63,.19-.9,.38-.29,.2-.29,.37,0,.58,.18,.13,.39,.21,.6,.29,.79,.26,1.62,.35,2.45,.37,.97,.02,1.94-.04,2.88-.31,.31-.09,.61-.19,.86-.4,.21-.18,.21-.31,0-.48-.17-.14-.37-.23-.58-.3-.63-.23-1.28-.31-1.94-.38-.08,0-.11,.04-.14,.09-.25,.38-.49,.77-.75,1.16Z"/></svg>