<?xml version="1.0" encoding="UTF-8"?><svg id="Layer_1" xmlns="http://www.w3.org/2000/svg" viewBox="0 0 16 16"><defs><style>.cls-1{fill:#ba2329;}</style></defs><path class="cls-1" d="M14.9,3.44c-.8,.6-1.61,1.19-2.41,1.79-1.43,1.06-2.86,2.13-4.28,3.19-.08,.06-.13,.07-.22,0C5.88,6.86,3.78,5.3,1.68,3.73c-.04-.03-.08-.05-.12-.07,0,0,0,0,0,0-.01-.02-.02-.05-.06-.03,0,0,0,0,0,0,0-.03-.01-.03-.03-.03,0,0,0,0,0,0,0-.03-.02-.03-.04-.02-.04-.04-.08-.09-.13-.13,.04-.04,.09-.02,.13-.02,4.44,0,8.88,0,13.32,0,.05,0,.09-.01,.14,.01Z"/><path class="cls-1" d="M3.61,5.99c.52,.4,1.03,.81,1.55,1.21,.1,.08,.1,.12,.02,.21-1.29,1.53-2.58,3.07-3.87,4.6-.02,.02-.04,.05-.06,.08-.03-.04-.02-.08-.02-.12,0-2.57,0-5.14,0-7.7,0-.02,0-.05,0-.07,.06,0,.1,.04,.13,.07,.67,.52,1.34,1.04,2,1.56,.04,.03,.07,.07,.11,.07,0,0,0,0,0,0,0,.02,.01,.03,.03,.03h0s.03,.04,.05,.03c0,0,0,0,0,0,.01,.01,.02,.03,.03,.04Z"/><path class="cls-1" d="M14.39,12.24H1.91s.04-.07,.06-.1c1.27-1.47,2.54-2.94,3.81-4.41,.07-.08,.1-.06,.17,0,.7,.53,1.4,1.06,2.1,1.59,.08,.06,.13,.06,.21,0,.69-.53,1.39-1.05,2.09-1.58,.09-.07,.13-.06,.2,.02,1.27,1.47,2.55,2.94,3.82,4.42,.01,.02,.04,.03,.03,.07Z"/><path class="cls-1" d="M15,11.99c-.9-1.07-1.79-2.13-2.68-3.19-.41-.48-.81-.97-1.22-1.45-.05-.06-.05-.08,.01-.13,1.29-1,2.58-2,3.87-3,0,0,0,0,.02,0v7.78Z"/></svg>